<mxfile host="65bd71144e">
    <diagram id="wE0ajQqVN8ZXP2OR7bFC" name="Page-1">
        <mxGraphModel dx="1699" dy="632" grid="0" gridSize="10" guides="1" tooltips="1" connect="1" arrows="1" fold="1" page="1" pageScale="1" pageWidth="1169" pageHeight="827" math="0" shadow="0">
            <root>
                <mxCell id="0"/>
                <mxCell id="1" parent="0"/>
                <mxCell id="OGDo6H8NNohpMqfSObW9-145" value="F" style="text;html=1;strokeColor=none;fillColor=none;align=center;verticalAlign=middle;whiteSpace=wrap;rounded=0;" parent="1" vertex="1">
                    <mxGeometry x="1682" y="317" width="60" height="30" as="geometry"/>
                </mxCell>
                <mxCell id="L_lt8IWHbVz3kpPMdmdx-9" value="S15a" style="text;html=1;strokeColor=none;fillColor=none;align=left;verticalAlign=middle;whiteSpace=wrap;rounded=0;dashed=1;dashPattern=1 1;fontStyle=1;fontColor=#FF0000;fontSize=15;" parent="1" vertex="1">
                    <mxGeometry x="1376" y="263.5" width="40" height="30" as="geometry"/>
                </mxCell>
                <mxCell id="OGDo6H8NNohpMqfSObW9-61" value="" style="rounded=0;whiteSpace=wrap;html=1;dashed=1;dashPattern=1 1;fillColor=none;" parent="1" vertex="1">
                    <mxGeometry x="810" y="155" width="304" height="187" as="geometry"/>
                </mxCell>
                <mxCell id="qE4AglkrRlAp2CRrqQMC-1" value="" style="rounded=0;whiteSpace=wrap;html=1;dashed=1;dashPattern=1 1;fillColor=none;" parent="1" vertex="1">
                    <mxGeometry x="1671" y="412" width="270" height="66" as="geometry"/>
                </mxCell>
                <mxCell id="OGDo6H8NNohpMqfSObW9-154" value="" style="rounded=0;whiteSpace=wrap;html=1;dashed=1;dashPattern=1 1;fillColor=none;" parent="1" vertex="1">
                    <mxGeometry x="839" y="689" width="261" height="100" as="geometry"/>
                </mxCell>
                <mxCell id="OGDo6H8NNohpMqfSObW9-135" value="" style="rounded=0;whiteSpace=wrap;html=1;dashed=1;dashPattern=1 1;fillColor=none;" parent="1" vertex="1">
                    <mxGeometry x="105.5" y="909" width="248.5" height="70" as="geometry"/>
                </mxCell>
                <mxCell id="OGDo6H8NNohpMqfSObW9-129" value="" style="rounded=0;whiteSpace=wrap;html=1;dashed=1;dashPattern=1 1;fillColor=none;" parent="1" vertex="1">
                    <mxGeometry x="1671" y="798" width="279" height="240" as="geometry"/>
                </mxCell>
                <mxCell id="OGDo6H8NNohpMqfSObW9-128" value="" style="rounded=0;whiteSpace=wrap;html=1;dashed=1;dashPattern=1 1;fillColor=none;" parent="1" vertex="1">
                    <mxGeometry x="1673" y="518" width="277" height="240" as="geometry"/>
                </mxCell>
                <mxCell id="OGDo6H8NNohpMqfSObW9-127" value="" style="rounded=0;whiteSpace=wrap;html=1;dashed=1;dashPattern=1 1;fillColor=none;" parent="1" vertex="1">
                    <mxGeometry x="1671" y="96" width="270" height="68" as="geometry"/>
                </mxCell>
                <mxCell id="OGDo6H8NNohpMqfSObW9-63" value="" style="rounded=0;whiteSpace=wrap;html=1;dashed=1;dashPattern=1 1;fillColor=none;" parent="1" vertex="1">
                    <mxGeometry x="840" y="367" width="258" height="70.5" as="geometry"/>
                </mxCell>
                <mxCell id="OGDo6H8NNohpMqfSObW9-36" value="" style="rounded=0;whiteSpace=wrap;html=1;dashed=1;dashPattern=1 1;fillColor=none;" parent="1" vertex="1">
                    <mxGeometry x="146" y="645" width="170" height="61" as="geometry"/>
                </mxCell>
                <mxCell id="OGDo6H8NNohpMqfSObW9-35" value="" style="rounded=0;whiteSpace=wrap;html=1;dashed=1;dashPattern=1 1;fillColor=none;" parent="1" vertex="1">
                    <mxGeometry x="1352" y="260" width="256" height="97" as="geometry"/>
                </mxCell>
                <mxCell id="OGDo6H8NNohpMqfSObW9-30" value="" style="rounded=0;whiteSpace=wrap;html=1;dashed=1;dashPattern=1 1;fillColor=none;" parent="1" vertex="1">
                    <mxGeometry x="100" y="76" width="240" height="80" as="geometry"/>
                </mxCell>
                <mxCell id="OGDo6H8NNohpMqfSObW9-27" value="" style="rounded=0;whiteSpace=wrap;html=1;dashed=1;dashPattern=1 1;fillColor=none;" parent="1" vertex="1">
                    <mxGeometry x="100" y="175" width="480" height="425" as="geometry"/>
                </mxCell>
                <mxCell id="OGDo6H8NNohpMqfSObW9-5" style="edgeStyle=orthogonalEdgeStyle;rounded=1;orthogonalLoop=1;jettySize=auto;html=1;exitX=0.5;exitY=1;exitDx=0;exitDy=0;entryX=0.5;entryY=0;entryDx=0;entryDy=0;endArrow=block;endFill=1;" parent="1" source="OGDo6H8NNohpMqfSObW9-1" target="OGDo6H8NNohpMqfSObW9-2" edge="1">
                    <mxGeometry relative="1" as="geometry"/>
                </mxCell>
                <mxCell id="OGDo6H8NNohpMqfSObW9-29" style="edgeStyle=orthogonalEdgeStyle;rounded=1;orthogonalLoop=1;jettySize=auto;html=1;endArrow=block;endFill=1;entryX=0.5;entryY=0;entryDx=0;entryDy=0;" parent="1" target="OGDo6H8NNohpMqfSObW9-1" edge="1">
                    <mxGeometry relative="1" as="geometry">
                        <mxPoint x="220" y="20" as="sourcePoint"/>
                    </mxGeometry>
                </mxCell>
                <mxCell id="OGDo6H8NNohpMqfSObW9-1" value="clear left elements counter (LEC)&lt;br&gt;clear right elements counter (REC)&lt;br&gt;clear elements counter (EC)" style="rounded=0;whiteSpace=wrap;html=1;" parent="1" vertex="1">
                    <mxGeometry x="120" y="96" width="200" height="45" as="geometry"/>
                </mxCell>
                <mxCell id="OGDo6H8NNohpMqfSObW9-6" style="edgeStyle=orthogonalEdgeStyle;rounded=1;orthogonalLoop=1;jettySize=auto;html=1;exitX=0.5;exitY=1;exitDx=0;exitDy=0;entryX=0.5;entryY=0;entryDx=0;entryDy=0;endArrow=block;endFill=1;" parent="1" source="OGDo6H8NNohpMqfSObW9-2" target="OGDo6H8NNohpMqfSObW9-3" edge="1">
                    <mxGeometry relative="1" as="geometry"/>
                </mxCell>
                <mxCell id="OGDo6H8NNohpMqfSObW9-2" value="set address mux to EC&lt;br&gt;set data mux to UART R" style="rounded=0;whiteSpace=wrap;html=1;" parent="1" vertex="1">
                    <mxGeometry x="120" y="230" width="200" height="40" as="geometry"/>
                </mxCell>
                <mxCell id="OGDo6H8NNohpMqfSObW9-4" style="edgeStyle=orthogonalEdgeStyle;rounded=1;orthogonalLoop=1;jettySize=auto;html=1;exitX=1;exitY=0.5;exitDx=0;exitDy=0;entryX=0.5;entryY=0;entryDx=0;entryDy=0;endArrow=block;endFill=1;" parent="1" source="OGDo6H8NNohpMqfSObW9-3" target="OGDo6H8NNohpMqfSObW9-2" edge="1">
                    <mxGeometry relative="1" as="geometry">
                        <Array as="points">
                            <mxPoint x="400" y="330"/>
                            <mxPoint x="400" y="190"/>
                            <mxPoint x="220" y="190"/>
                        </Array>
                    </mxGeometry>
                </mxCell>
                <mxCell id="OGDo6H8NNohpMqfSObW9-9" style="edgeStyle=orthogonalEdgeStyle;rounded=1;orthogonalLoop=1;jettySize=auto;html=1;exitX=0.5;exitY=1;exitDx=0;exitDy=0;entryX=0.5;entryY=0;entryDx=0;entryDy=0;endArrow=block;endFill=1;" parent="1" source="OGDo6H8NNohpMqfSObW9-3" target="OGDo6H8NNohpMqfSObW9-8" edge="1">
                    <mxGeometry relative="1" as="geometry"/>
                </mxCell>
                <mxCell id="OGDo6H8NNohpMqfSObW9-3" value="rx_done = '1'?" style="shape=hexagon;perimeter=hexagonPerimeter2;whiteSpace=wrap;html=1;fixedSize=1;" parent="1" vertex="1">
                    <mxGeometry x="120" y="310" width="200" height="40" as="geometry"/>
                </mxCell>
                <mxCell id="OGDo6H8NNohpMqfSObW9-7" value="F" style="text;html=1;strokeColor=none;fillColor=none;align=center;verticalAlign=middle;whiteSpace=wrap;rounded=0;" parent="1" vertex="1">
                    <mxGeometry x="320" y="300" width="60" height="30" as="geometry"/>
                </mxCell>
                <mxCell id="OGDo6H8NNohpMqfSObW9-11" style="edgeStyle=orthogonalEdgeStyle;rounded=1;orthogonalLoop=1;jettySize=auto;html=1;exitX=0.5;exitY=1;exitDx=0;exitDy=0;entryX=0.5;entryY=0;entryDx=0;entryDy=0;endArrow=block;endFill=1;" parent="1" source="OGDo6H8NNohpMqfSObW9-8" target="OGDo6H8NNohpMqfSObW9-10" edge="1">
                    <mxGeometry relative="1" as="geometry"/>
                </mxCell>
                <mxCell id="OGDo6H8NNohpMqfSObW9-8" value="wr &amp;lt;= '1'" style="rounded=1;whiteSpace=wrap;html=1;" parent="1" vertex="1">
                    <mxGeometry x="120" y="390" width="200" height="40" as="geometry"/>
                </mxCell>
                <mxCell id="OGDo6H8NNohpMqfSObW9-17" style="edgeStyle=orthogonalEdgeStyle;rounded=1;orthogonalLoop=1;jettySize=auto;html=1;exitX=1;exitY=0.5;exitDx=0;exitDy=0;entryX=0.5;entryY=1;entryDx=0;entryDy=0;endArrow=block;endFill=1;" parent="1" source="OGDo6H8NNohpMqfSObW9-10" target="OGDo6H8NNohpMqfSObW9-15" edge="1">
                    <mxGeometry relative="1" as="geometry"/>
                </mxCell>
                <mxCell id="OGDo6H8NNohpMqfSObW9-23" style="edgeStyle=orthogonalEdgeStyle;rounded=1;orthogonalLoop=1;jettySize=auto;html=1;exitX=0.5;exitY=1;exitDx=0;exitDy=0;endArrow=block;endFill=1;" parent="1" source="OGDo6H8NNohpMqfSObW9-10" target="OGDo6H8NNohpMqfSObW9-21" edge="1">
                    <mxGeometry relative="1" as="geometry"/>
                </mxCell>
                <mxCell id="OGDo6H8NNohpMqfSObW9-10" value="ASCII R = &quot;Enter&quot;?" style="shape=hexagon;perimeter=hexagonPerimeter2;whiteSpace=wrap;html=1;fixedSize=1;" parent="1" vertex="1">
                    <mxGeometry x="120" y="470" width="200" height="40" as="geometry"/>
                </mxCell>
                <mxCell id="OGDo6H8NNohpMqfSObW9-31" style="edgeStyle=orthogonalEdgeStyle;rounded=1;orthogonalLoop=1;jettySize=auto;html=1;exitX=0.5;exitY=0;exitDx=0;exitDy=0;entryX=0.5;entryY=0;entryDx=0;entryDy=0;endArrow=block;endFill=1;" parent="1" source="OGDo6H8NNohpMqfSObW9-15" target="OGDo6H8NNohpMqfSObW9-2" edge="1">
                    <mxGeometry relative="1" as="geometry">
                        <Array as="points">
                            <mxPoint x="460" y="190"/>
                            <mxPoint x="220" y="190"/>
                        </Array>
                    </mxGeometry>
                </mxCell>
                <mxCell id="OGDo6H8NNohpMqfSObW9-15" value="increment elements counter&lt;br&gt;(EC)" style="rounded=1;whiteSpace=wrap;html=1;" parent="1" vertex="1">
                    <mxGeometry x="360" y="390" width="200" height="40" as="geometry"/>
                </mxCell>
                <mxCell id="OGDo6H8NNohpMqfSObW9-18" value="F" style="text;html=1;strokeColor=none;fillColor=none;align=center;verticalAlign=middle;whiteSpace=wrap;rounded=0;" parent="1" vertex="1">
                    <mxGeometry x="320" y="460" width="60" height="30" as="geometry"/>
                </mxCell>
                <mxCell id="OGDo6H8NNohpMqfSObW9-19" value="T" style="text;html=1;strokeColor=none;fillColor=none;align=center;verticalAlign=middle;whiteSpace=wrap;rounded=0;" parent="1" vertex="1">
                    <mxGeometry x="220" y="350" width="60" height="30" as="geometry"/>
                </mxCell>
                <mxCell id="31" value="" style="edgeStyle=none;html=1;" edge="1" parent="1" source="OGDo6H8NNohpMqfSObW9-21" target="30">
                    <mxGeometry relative="1" as="geometry"/>
                </mxCell>
                <mxCell id="OGDo6H8NNohpMqfSObW9-21" value="clear elements counter&amp;nbsp; (EC)" style="rounded=1;whiteSpace=wrap;html=1;" parent="1" vertex="1">
                    <mxGeometry x="120" y="540" width="200" height="44" as="geometry"/>
                </mxCell>
                <mxCell id="OGDo6H8NNohpMqfSObW9-24" value="T" style="text;html=1;strokeColor=none;fillColor=none;align=center;verticalAlign=middle;whiteSpace=wrap;rounded=0;" parent="1" vertex="1">
                    <mxGeometry x="220" y="510" width="60" height="30" as="geometry"/>
                </mxCell>
                <mxCell id="41" style="edgeStyle=none;html=1;exitX=0.5;exitY=1;exitDx=0;exitDy=0;entryX=0.5;entryY=0;entryDx=0;entryDy=0;" edge="1" parent="1" source="OGDo6H8NNohpMqfSObW9-33" target="OGDo6H8NNohpMqfSObW9-39">
                    <mxGeometry relative="1" as="geometry"/>
                </mxCell>
                <mxCell id="OGDo6H8NNohpMqfSObW9-33" value="load left elements counter (LEC)" style="rounded=0;whiteSpace=wrap;html=1;" parent="1" vertex="1">
                    <mxGeometry x="120" y="822" width="200" height="40" as="geometry"/>
                </mxCell>
                <mxCell id="22" style="edgeStyle=none;html=1;exitX=0.5;exitY=1;exitDx=0;exitDy=0;" parent="1" source="OGDo6H8NNohpMqfSObW9-34" target="OGDo6H8NNohpMqfSObW9-66" edge="1">
                    <mxGeometry relative="1" as="geometry"/>
                </mxCell>
                <mxCell id="OGDo6H8NNohpMqfSObW9-34" value="set address mux to REC&lt;br&gt;load right element register (LER)" style="rounded=0;whiteSpace=wrap;html=1;" parent="1" vertex="1">
                    <mxGeometry x="857" y="482.5" width="200" height="50" as="geometry"/>
                </mxCell>
                <mxCell id="42" style="edgeStyle=none;html=1;exitX=0.5;exitY=1;exitDx=0;exitDy=0;entryX=0.5;entryY=0;entryDx=0;entryDy=0;" edge="1" parent="1" source="OGDo6H8NNohpMqfSObW9-39" target="OGDo6H8NNohpMqfSObW9-41">
                    <mxGeometry relative="1" as="geometry">
                        <Array as="points">
                            <mxPoint x="220" y="1032"/>
                            <mxPoint x="658" y="1034"/>
                            <mxPoint x="656" y="130"/>
                            <mxPoint x="955" y="133"/>
                        </Array>
                    </mxGeometry>
                </mxCell>
                <mxCell id="OGDo6H8NNohpMqfSObW9-39" value="decrement left elements counter&lt;br&gt;(LEC)" style="rounded=0;whiteSpace=wrap;html=1;" parent="1" vertex="1">
                    <mxGeometry x="120" y="924" width="200" height="40" as="geometry"/>
                </mxCell>
                <mxCell id="OGDo6H8NNohpMqfSObW9-45" style="edgeStyle=orthogonalEdgeStyle;rounded=1;orthogonalLoop=1;jettySize=auto;html=1;exitX=0.5;exitY=1;exitDx=0;exitDy=0;entryX=0.5;entryY=0;entryDx=0;entryDy=0;endArrow=block;endFill=1;" parent="1" source="OGDo6H8NNohpMqfSObW9-41" target="L_lt8IWHbVz3kpPMdmdx-1" edge="1">
                    <mxGeometry relative="1" as="geometry"/>
                </mxCell>
                <mxCell id="OGDo6H8NNohpMqfSObW9-41" value="set address mux to LEC" style="rounded=0;whiteSpace=wrap;html=1;" parent="1" vertex="1">
                    <mxGeometry x="857" y="179" width="200" height="40" as="geometry"/>
                </mxCell>
                <mxCell id="OGDo6H8NNohpMqfSObW9-53" value="F" style="text;html=1;strokeColor=none;fillColor=none;align=center;verticalAlign=middle;whiteSpace=wrap;rounded=0;" parent="1" vertex="1">
                    <mxGeometry x="912" y="310" width="60" height="30" as="geometry"/>
                </mxCell>
                <mxCell id="OGDo6H8NNohpMqfSObW9-156" style="edgeStyle=orthogonalEdgeStyle;rounded=1;orthogonalLoop=1;jettySize=auto;html=1;exitX=0.5;exitY=1;exitDx=0;exitDy=0;entryX=0.5;entryY=0;entryDx=0;entryDy=0;endArrow=block;endFill=1;" parent="1" source="OGDo6H8NNohpMqfSObW9-68" target="OGDo6H8NNohpMqfSObW9-155" edge="1">
                    <mxGeometry relative="1" as="geometry"/>
                </mxCell>
                <mxCell id="OGDo6H8NNohpMqfSObW9-68" value="set address mux to REC&lt;br&gt;set data mux to LER&lt;br&gt;write to RAM&lt;br&gt;" style="rounded=0;whiteSpace=wrap;html=1;" parent="1" vertex="1">
                    <mxGeometry x="857" y="702.5" width="200" height="76" as="geometry"/>
                </mxCell>
                <mxCell id="OGDo6H8NNohpMqfSObW9-72" value="T" style="text;html=1;strokeColor=none;fillColor=none;align=center;verticalAlign=middle;whiteSpace=wrap;rounded=0;" parent="1" vertex="1">
                    <mxGeometry x="1047" y="293.5" width="60" height="30" as="geometry"/>
                </mxCell>
                <mxCell id="62" value="" style="edgeStyle=none;html=1;" edge="1" parent="1" source="OGDo6H8NNohpMqfSObW9-81" target="61">
                    <mxGeometry relative="1" as="geometry"/>
                </mxCell>
                <mxCell id="OGDo6H8NNohpMqfSObW9-81" value="increment elements counter&lt;br&gt;(EC)" style="rounded=0;whiteSpace=wrap;html=1;" parent="1" vertex="1">
                    <mxGeometry x="1720" y="110" width="200" height="40" as="geometry"/>
                </mxCell>
                <mxCell id="OGDo6H8NNohpMqfSObW9-142" style="edgeStyle=orthogonalEdgeStyle;rounded=1;orthogonalLoop=1;jettySize=auto;html=1;exitX=0.5;exitY=1;exitDx=0;exitDy=0;entryX=0.5;entryY=0;entryDx=0;entryDy=0;endArrow=block;endFill=1;" parent="1" source="OGDo6H8NNohpMqfSObW9-82" target="OGDo6H8NNohpMqfSObW9-159" edge="1">
                    <mxGeometry relative="1" as="geometry"/>
                </mxCell>
                <mxCell id="70" style="edgeStyle=none;html=1;exitX=0;exitY=0.5;exitDx=0;exitDy=0;entryX=1;entryY=0.5;entryDx=0;entryDy=0;" edge="1" parent="1" source="OGDo6H8NNohpMqfSObW9-82" target="16">
                    <mxGeometry relative="1" as="geometry"/>
                </mxCell>
                <mxCell id="OGDo6H8NNohpMqfSObW9-82" value="data_out = &quot;Enter&quot; ?" style="shape=hexagon;perimeter=hexagonPerimeter2;whiteSpace=wrap;html=1;fixedSize=1;" parent="1" vertex="1">
                    <mxGeometry x="1722.5" y="295" width="200" height="40" as="geometry"/>
                </mxCell>
                <mxCell id="OGDo6H8NNohpMqfSObW9-158" style="edgeStyle=orthogonalEdgeStyle;rounded=1;orthogonalLoop=1;jettySize=auto;html=1;exitX=1;exitY=0.5;exitDx=0;exitDy=0;endArrow=block;endFill=1;entryX=0.5;entryY=0;entryDx=0;entryDy=0;startArrow=none;" parent="1" source="OGDo6H8NNohpMqfSObW9-66" target="OGDo6H8NNohpMqfSObW9-81" edge="1">
                    <mxGeometry relative="1" as="geometry">
                        <mxPoint x="1400" y="670" as="targetPoint"/>
                        <Array as="points">
                            <mxPoint x="1057" y="616"/>
                            <mxPoint x="1320" y="616"/>
                            <mxPoint x="1320" y="80"/>
                            <mxPoint x="1820" y="80"/>
                        </Array>
                    </mxGeometry>
                </mxCell>
                <mxCell id="OGDo6H8NNohpMqfSObW9-107" style="edgeStyle=orthogonalEdgeStyle;rounded=1;orthogonalLoop=1;jettySize=auto;html=1;exitX=0.5;exitY=1;exitDx=0;exitDy=0;entryX=0.5;entryY=0;entryDx=0;entryDy=0;endArrow=block;endFill=1;" parent="1" source="OGDo6H8NNohpMqfSObW9-99" target="OGDo6H8NNohpMqfSObW9-100" edge="1">
                    <mxGeometry relative="1" as="geometry"/>
                </mxCell>
                <mxCell id="OGDo6H8NNohpMqfSObW9-99" value="set address mux to EC" style="rounded=0;whiteSpace=wrap;html=1;" parent="1" vertex="1">
                    <mxGeometry x="1720" y="538" width="200" height="40" as="geometry"/>
                </mxCell>
                <mxCell id="OGDo6H8NNohpMqfSObW9-108" style="edgeStyle=orthogonalEdgeStyle;rounded=1;orthogonalLoop=1;jettySize=auto;html=1;exitX=0.5;exitY=1;exitDx=0;exitDy=0;endArrow=block;endFill=1;" parent="1" source="OGDo6H8NNohpMqfSObW9-100" target="OGDo6H8NNohpMqfSObW9-101" edge="1">
                    <mxGeometry relative="1" as="geometry"/>
                </mxCell>
                <mxCell id="OGDo6H8NNohpMqfSObW9-148" style="edgeStyle=orthogonalEdgeStyle;rounded=1;orthogonalLoop=1;jettySize=auto;html=1;exitX=1;exitY=0.5;exitDx=0;exitDy=0;endArrow=block;endFill=1;entryX=0.5;entryY=0;entryDx=0;entryDy=0;" parent="1" source="OGDo6H8NNohpMqfSObW9-100" target="OGDo6H8NNohpMqfSObW9-1" edge="1">
                    <mxGeometry relative="1" as="geometry">
                        <mxPoint x="220" y="110" as="targetPoint"/>
                        <Array as="points">
                            <mxPoint x="1980" y="638"/>
                            <mxPoint x="1980" y="40"/>
                            <mxPoint x="220" y="40"/>
                        </Array>
                    </mxGeometry>
                </mxCell>
                <mxCell id="OGDo6H8NNohpMqfSObW9-100" value="data_out = &quot;Enter&quot;?" style="shape=hexagon;perimeter=hexagonPerimeter2;whiteSpace=wrap;html=1;fixedSize=1;" parent="1" vertex="1">
                    <mxGeometry x="1720" y="618" width="200" height="40" as="geometry"/>
                </mxCell>
                <mxCell id="OGDo6H8NNohpMqfSObW9-109" style="edgeStyle=orthogonalEdgeStyle;rounded=1;orthogonalLoop=1;jettySize=auto;html=1;exitX=0.5;exitY=1;exitDx=0;exitDy=0;endArrow=block;endFill=1;" parent="1" source="OGDo6H8NNohpMqfSObW9-101" edge="1">
                    <mxGeometry relative="1" as="geometry">
                        <mxPoint x="1820" y="818" as="targetPoint"/>
                    </mxGeometry>
                </mxCell>
                <mxCell id="OGDo6H8NNohpMqfSObW9-101" value="set tx_start" style="rounded=1;whiteSpace=wrap;html=1;" parent="1" vertex="1">
                    <mxGeometry x="1720" y="698" width="200" height="40" as="geometry"/>
                </mxCell>
                <mxCell id="OGDo6H8NNohpMqfSObW9-111" style="edgeStyle=orthogonalEdgeStyle;rounded=1;orthogonalLoop=1;jettySize=auto;html=1;exitX=0.5;exitY=1;exitDx=0;exitDy=0;entryX=0.5;entryY=0;entryDx=0;entryDy=0;endArrow=block;endFill=1;" parent="1" source="OGDo6H8NNohpMqfSObW9-103" target="OGDo6H8NNohpMqfSObW9-104" edge="1">
                    <mxGeometry relative="1" as="geometry"/>
                </mxCell>
                <mxCell id="OGDo6H8NNohpMqfSObW9-103" value="set address mux to EC" style="rounded=0;whiteSpace=wrap;html=1;" parent="1" vertex="1">
                    <mxGeometry x="1720" y="818" width="200" height="40" as="geometry"/>
                </mxCell>
                <mxCell id="OGDo6H8NNohpMqfSObW9-106" style="edgeStyle=orthogonalEdgeStyle;rounded=1;orthogonalLoop=1;jettySize=auto;html=1;exitX=1;exitY=0.5;exitDx=0;exitDy=0;entryX=0.5;entryY=0;entryDx=0;entryDy=0;endArrow=block;endFill=1;" parent="1" source="OGDo6H8NNohpMqfSObW9-104" target="OGDo6H8NNohpMqfSObW9-103" edge="1">
                    <mxGeometry relative="1" as="geometry">
                        <Array as="points">
                            <mxPoint x="1980" y="918"/>
                            <mxPoint x="1980" y="778"/>
                            <mxPoint x="1820" y="778"/>
                        </Array>
                    </mxGeometry>
                </mxCell>
                <mxCell id="OGDo6H8NNohpMqfSObW9-110" style="edgeStyle=orthogonalEdgeStyle;rounded=1;orthogonalLoop=1;jettySize=auto;html=1;exitX=0.5;exitY=1;exitDx=0;exitDy=0;entryX=0.5;entryY=0;entryDx=0;entryDy=0;endArrow=block;endFill=1;" parent="1" source="OGDo6H8NNohpMqfSObW9-104" target="OGDo6H8NNohpMqfSObW9-105" edge="1">
                    <mxGeometry relative="1" as="geometry"/>
                </mxCell>
                <mxCell id="OGDo6H8NNohpMqfSObW9-104" value="tx_done = '1'?" style="shape=hexagon;perimeter=hexagonPerimeter2;whiteSpace=wrap;html=1;fixedSize=1;" parent="1" vertex="1">
                    <mxGeometry x="1720" y="898" width="200" height="40" as="geometry"/>
                </mxCell>
                <mxCell id="OGDo6H8NNohpMqfSObW9-150" style="edgeStyle=orthogonalEdgeStyle;rounded=1;orthogonalLoop=1;jettySize=auto;html=1;exitX=0.5;exitY=1;exitDx=0;exitDy=0;entryX=0.5;entryY=0;entryDx=0;entryDy=0;endArrow=block;endFill=1;" parent="1" source="OGDo6H8NNohpMqfSObW9-105" target="OGDo6H8NNohpMqfSObW9-99" edge="1">
                    <mxGeometry relative="1" as="geometry">
                        <Array as="points">
                            <mxPoint x="1820" y="1078"/>
                            <mxPoint x="1620" y="1078"/>
                            <mxPoint x="1620" y="498"/>
                            <mxPoint x="1820" y="498"/>
                        </Array>
                    </mxGeometry>
                </mxCell>
                <mxCell id="OGDo6H8NNohpMqfSObW9-105" value="increment elements counter (EC)" style="rounded=1;whiteSpace=wrap;html=1;" parent="1" vertex="1">
                    <mxGeometry x="1720" y="978" width="200" height="40" as="geometry"/>
                </mxCell>
                <mxCell id="OGDo6H8NNohpMqfSObW9-146" value="T" style="text;html=1;strokeColor=none;fillColor=none;align=center;verticalAlign=middle;whiteSpace=wrap;rounded=0;" parent="1" vertex="1">
                    <mxGeometry x="1760" y="364" width="60" height="30" as="geometry"/>
                </mxCell>
                <mxCell id="OGDo6H8NNohpMqfSObW9-147" value="F" style="text;html=1;strokeColor=none;fillColor=none;align=center;verticalAlign=middle;whiteSpace=wrap;rounded=0;" parent="1" vertex="1">
                    <mxGeometry x="1760" y="658" width="60" height="30" as="geometry"/>
                </mxCell>
                <mxCell id="OGDo6H8NNohpMqfSObW9-149" value="T" style="text;html=1;strokeColor=none;fillColor=none;align=center;verticalAlign=middle;whiteSpace=wrap;rounded=0;" parent="1" vertex="1">
                    <mxGeometry x="1946" y="645" width="60" height="30" as="geometry"/>
                </mxCell>
                <mxCell id="OGDo6H8NNohpMqfSObW9-151" value="F" style="text;html=1;strokeColor=none;fillColor=none;align=center;verticalAlign=middle;whiteSpace=wrap;rounded=0;" parent="1" vertex="1">
                    <mxGeometry x="1943" y="919" width="60" height="30" as="geometry"/>
                </mxCell>
                <mxCell id="OGDo6H8NNohpMqfSObW9-152" value="T" style="text;html=1;strokeColor=none;fillColor=none;align=center;verticalAlign=middle;whiteSpace=wrap;rounded=0;" parent="1" vertex="1">
                    <mxGeometry x="1760" y="938" width="60" height="30" as="geometry"/>
                </mxCell>
                <mxCell id="55" style="edgeStyle=none;html=1;exitX=0.5;exitY=1;exitDx=0;exitDy=0;entryX=0.5;entryY=0;entryDx=0;entryDy=0;" edge="1" parent="1" source="OGDo6H8NNohpMqfSObW9-155" target="52">
                    <mxGeometry relative="1" as="geometry"/>
                </mxCell>
                <mxCell id="OGDo6H8NNohpMqfSObW9-155" value="set address mux to LEC&lt;br&gt;set data mux RER&lt;br&gt;write to RAM" style="rounded=0;whiteSpace=wrap;html=1;" parent="1" vertex="1">
                    <mxGeometry x="857" y="848.5" width="200" height="54.5" as="geometry"/>
                </mxCell>
                <mxCell id="73" style="edgeStyle=none;html=1;exitX=0.5;exitY=1;exitDx=0;exitDy=0;" edge="1" parent="1" source="OGDo6H8NNohpMqfSObW9-159" target="OGDo6H8NNohpMqfSObW9-99">
                    <mxGeometry relative="1" as="geometry"/>
                </mxCell>
                <mxCell id="OGDo6H8NNohpMqfSObW9-159" value="clear elements counter (EC)" style="rounded=0;whiteSpace=wrap;html=1;" parent="1" vertex="1">
                    <mxGeometry x="1722.5" y="425" width="200" height="40" as="geometry"/>
                </mxCell>
                <mxCell id="OGDo6H8NNohpMqfSObW9-162" value="S0" style="text;html=1;strokeColor=none;fillColor=none;align=left;verticalAlign=middle;whiteSpace=wrap;rounded=0;dashed=1;dashPattern=1 1;fontStyle=1;fontColor=#FF0000;fontSize=15;" parent="1" vertex="1">
                    <mxGeometry x="340" y="76" width="40" height="30" as="geometry"/>
                </mxCell>
                <mxCell id="OGDo6H8NNohpMqfSObW9-163" value="S1&amp;nbsp;" style="text;html=1;strokeColor=none;fillColor=none;align=right;verticalAlign=middle;whiteSpace=wrap;rounded=0;dashed=1;dashPattern=1 1;fontStyle=1;fontColor=#FF0000;fontSize=15;" parent="1" vertex="1">
                    <mxGeometry x="540" y="210" width="40" height="30" as="geometry"/>
                </mxCell>
                <mxCell id="OGDo6H8NNohpMqfSObW9-164" value="S2&lt;br&gt;" style="text;html=1;strokeColor=none;fillColor=none;align=left;verticalAlign=middle;whiteSpace=wrap;rounded=0;dashed=1;dashPattern=1 1;fontStyle=1;fontColor=#FF0000;fontSize=15;" parent="1" vertex="1">
                    <mxGeometry x="289" y="660" width="40" height="30" as="geometry"/>
                </mxCell>
                <mxCell id="OGDo6H8NNohpMqfSObW9-167" value="S10" style="text;html=1;strokeColor=none;fillColor=none;align=right;verticalAlign=middle;whiteSpace=wrap;rounded=0;dashed=1;dashPattern=1 1;fontStyle=1;fontColor=#FF0000;fontSize=15;" parent="1" vertex="1">
                    <mxGeometry x="1054" y="716" width="40" height="30" as="geometry"/>
                </mxCell>
                <mxCell id="OGDo6H8NNohpMqfSObW9-169" value="S13" style="text;html=1;strokeColor=none;fillColor=none;align=left;verticalAlign=middle;whiteSpace=wrap;rounded=0;dashed=1;dashPattern=1 1;fontStyle=1;fontColor=#FF0000;fontSize=15;" parent="1" vertex="1">
                    <mxGeometry x="1680" y="101" width="40" height="30" as="geometry"/>
                </mxCell>
                <mxCell id="OGDo6H8NNohpMqfSObW9-171" value="S16" style="text;html=1;strokeColor=none;fillColor=none;align=right;verticalAlign=middle;whiteSpace=wrap;rounded=0;dashed=1;dashPattern=1 1;fontStyle=1;fontColor=#FF0000;fontSize=15;" parent="1" vertex="1">
                    <mxGeometry x="1676" y="532.5" width="40" height="30" as="geometry"/>
                </mxCell>
                <mxCell id="OGDo6H8NNohpMqfSObW9-172" value="S17&amp;nbsp;" style="text;html=1;strokeColor=none;fillColor=none;align=right;verticalAlign=middle;whiteSpace=wrap;rounded=0;dashed=1;dashPattern=1 1;fontStyle=1;fontColor=#FF0000;fontSize=15;" parent="1" vertex="1">
                    <mxGeometry x="1673" y="833" width="40" height="30" as="geometry"/>
                </mxCell>
                <mxCell id="qE4AglkrRlAp2CRrqQMC-2" value="S15b&amp;nbsp;" style="text;html=1;strokeColor=none;fillColor=none;align=right;verticalAlign=middle;whiteSpace=wrap;rounded=0;dashed=1;dashPattern=1 1;fontStyle=1;fontColor=#FF0000;fontSize=15;" parent="1" vertex="1">
                    <mxGeometry x="1682" y="412" width="40" height="30" as="geometry"/>
                </mxCell>
                <mxCell id="Uw-b2mNJYzt21tlcbAmd-1" value="S6" style="text;html=1;strokeColor=none;fillColor=none;align=left;verticalAlign=middle;whiteSpace=wrap;rounded=0;dashed=1;dashPattern=1 1;fontStyle=1;fontColor=#FF0000;fontSize=15;" parent="1" vertex="1">
                    <mxGeometry x="1071" y="170" width="40" height="30" as="geometry"/>
                </mxCell>
                <mxCell id="21" style="edgeStyle=none;html=1;exitX=0.5;exitY=1;exitDx=0;exitDy=0;" parent="1" source="STAqftT4j32brJL8to_A-1" target="OGDo6H8NNohpMqfSObW9-34" edge="1">
                    <mxGeometry relative="1" as="geometry"/>
                </mxCell>
                <mxCell id="STAqftT4j32brJL8to_A-1" value="set address mux to LEC&lt;br&gt;load left element register (LER)" style="rounded=1;whiteSpace=wrap;html=1;" parent="1" vertex="1">
                    <mxGeometry x="857" y="380" width="200" height="40" as="geometry"/>
                </mxCell>
                <mxCell id="L_lt8IWHbVz3kpPMdmdx-2" style="edgeStyle=orthogonalEdgeStyle;rounded=1;orthogonalLoop=1;jettySize=auto;html=1;exitX=0.5;exitY=1;exitDx=0;exitDy=0;endArrow=block;endFill=1;" parent="1" source="L_lt8IWHbVz3kpPMdmdx-1" target="STAqftT4j32brJL8to_A-1" edge="1">
                    <mxGeometry relative="1" as="geometry">
                        <mxPoint x="795.5" y="357.5" as="targetPoint"/>
                        <Array as="points"/>
                    </mxGeometry>
                </mxCell>
                <mxCell id="10" style="edgeStyle=none;html=1;exitX=1;exitY=0.5;exitDx=0;exitDy=0;" parent="1" source="L_lt8IWHbVz3kpPMdmdx-1" target="OGDo6H8NNohpMqfSObW9-81" edge="1">
                    <mxGeometry relative="1" as="geometry">
                        <Array as="points">
                            <mxPoint x="1320" y="290"/>
                            <mxPoint x="1320" y="80"/>
                            <mxPoint x="1820" y="80"/>
                        </Array>
                    </mxGeometry>
                </mxCell>
                <mxCell id="44" value="" style="edgeStyle=none;html=1;" edge="1" parent="1" source="L_lt8IWHbVz3kpPMdmdx-1" target="STAqftT4j32brJL8to_A-1">
                    <mxGeometry relative="1" as="geometry"/>
                </mxCell>
                <mxCell id="L_lt8IWHbVz3kpPMdmdx-1" value="RAM(lec_value) = vertical tabulation ?&amp;nbsp;" style="shape=hexagon;perimeter=hexagonPerimeter2;whiteSpace=wrap;html=1;fixedSize=1;" parent="1" vertex="1">
                    <mxGeometry x="840" y="270" width="234" height="40" as="geometry"/>
                </mxCell>
                <mxCell id="3" value="" style="group" parent="1" vertex="1" connectable="0">
                    <mxGeometry x="857" y="582" width="260" height="83" as="geometry"/>
                </mxCell>
                <mxCell id="OGDo6H8NNohpMqfSObW9-66" value="left_value register &amp;gt; right_value register?" style="shape=hexagon;perimeter=hexagonPerimeter2;whiteSpace=wrap;html=1;fixedSize=1;" parent="3" vertex="1">
                    <mxGeometry y="10" width="200" height="40" as="geometry"/>
                </mxCell>
                <mxCell id="OGDo6H8NNohpMqfSObW9-98" value="F" style="text;html=1;strokeColor=none;fillColor=none;align=center;verticalAlign=middle;whiteSpace=wrap;rounded=0;" parent="3" vertex="1">
                    <mxGeometry x="189" y="-10" width="60" height="30" as="geometry"/>
                </mxCell>
                <mxCell id="49" value="" style="rounded=0;whiteSpace=wrap;html=1;dashed=1;dashPattern=1 1;fillColor=none;" vertex="1" parent="3">
                    <mxGeometry x="-13" y="-5.25" width="258" height="70.5" as="geometry"/>
                </mxCell>
                <mxCell id="50" value="S9" style="text;html=1;strokeColor=none;fillColor=none;align=right;verticalAlign=middle;whiteSpace=wrap;rounded=0;dashed=1;dashPattern=1 1;fontStyle=1;fontColor=#FF0000;fontSize=15;" vertex="1" parent="3">
                    <mxGeometry x="193" y="35.25" width="40" height="30" as="geometry"/>
                </mxCell>
                <mxCell id="OGDo6H8NNohpMqfSObW9-166" value="S7" style="text;html=1;strokeColor=none;fillColor=none;align=right;verticalAlign=middle;whiteSpace=wrap;rounded=0;dashed=1;dashPattern=1 1;fontStyle=1;fontColor=#FF0000;fontSize=15;" parent="1" vertex="1">
                    <mxGeometry x="1047" y="385" width="40" height="30" as="geometry"/>
                </mxCell>
                <mxCell id="11" style="edgeStyle=none;html=1;exitX=0.5;exitY=1;exitDx=0;exitDy=0;entryX=0.5;entryY=0;entryDx=0;entryDy=0;" parent="1" source="OGDo6H8NNohpMqfSObW9-66" target="OGDo6H8NNohpMqfSObW9-68" edge="1">
                    <mxGeometry relative="1" as="geometry"/>
                </mxCell>
                <mxCell id="71" style="edgeStyle=none;html=1;exitX=0.5;exitY=1;exitDx=0;exitDy=0;entryX=0;entryY=0.5;entryDx=0;entryDy=0;" edge="1" parent="1" source="16" target="38">
                    <mxGeometry relative="1" as="geometry">
                        <Array as="points">
                            <mxPoint x="1479" y="1118"/>
                            <mxPoint x="48" y="1107"/>
                            <mxPoint x="54" y="846"/>
                        </Array>
                    </mxGeometry>
                </mxCell>
                <mxCell id="16" value="load right element counter (REC)" style="rounded=0;whiteSpace=wrap;html=1;" parent="1" vertex="1">
                    <mxGeometry x="1388" y="293.5" width="200" height="40" as="geometry"/>
                </mxCell>
                <mxCell id="26" value="S11" style="text;html=1;strokeColor=none;fillColor=none;align=right;verticalAlign=middle;whiteSpace=wrap;rounded=0;dashed=1;dashPattern=1 1;fontStyle=1;fontColor=#FF0000;fontSize=15;" parent="1" vertex="1">
                    <mxGeometry x="1054" y="846" width="40" height="30" as="geometry"/>
                </mxCell>
                <mxCell id="27" value="S5" style="text;html=1;strokeColor=none;fillColor=none;align=left;verticalAlign=middle;whiteSpace=wrap;rounded=0;dashed=1;dashPattern=1 1;fontStyle=1;fontColor=#FF0000;fontSize=15;" parent="1" vertex="1">
                    <mxGeometry x="322.5" y="934" width="40" height="30" as="geometry"/>
                </mxCell>
                <mxCell id="34" value="" style="edgeStyle=none;html=1;" edge="1" parent="1" source="30" target="33">
                    <mxGeometry relative="1" as="geometry"/>
                </mxCell>
                <mxCell id="30" value="increment EC" style="whiteSpace=wrap;html=1;rounded=1;" vertex="1" parent="1">
                    <mxGeometry x="160" y="656" width="120" height="33" as="geometry"/>
                </mxCell>
                <mxCell id="59" style="edgeStyle=none;html=1;exitX=0.5;exitY=1;exitDx=0;exitDy=0;entryX=0.454;entryY=0.135;entryDx=0;entryDy=0;entryPerimeter=0;" edge="1" parent="1" source="33" target="38">
                    <mxGeometry relative="1" as="geometry"/>
                </mxCell>
                <mxCell id="33" value="load right elements counter (REC)" style="whiteSpace=wrap;html=1;rounded=1;" vertex="1" parent="1">
                    <mxGeometry x="124" y="739" width="196" height="40" as="geometry"/>
                </mxCell>
                <mxCell id="36" value="" style="rounded=0;whiteSpace=wrap;html=1;dashed=1;dashPattern=1 1;fillColor=none;" vertex="1" parent="1">
                    <mxGeometry x="116" y="730" width="236" height="61" as="geometry"/>
                </mxCell>
                <mxCell id="37" value="S3" style="text;html=1;strokeColor=none;fillColor=none;align=left;verticalAlign=middle;whiteSpace=wrap;rounded=0;dashed=1;dashPattern=1 1;fontStyle=1;fontColor=#FF0000;fontSize=15;" vertex="1" parent="1">
                    <mxGeometry x="325" y="746" width="40" height="30" as="geometry"/>
                </mxCell>
                <mxCell id="39" value="S4" style="text;html=1;strokeColor=none;fillColor=none;align=left;verticalAlign=middle;whiteSpace=wrap;rounded=0;dashed=1;dashPattern=1 1;fontStyle=1;fontColor=#FF0000;fontSize=15;" vertex="1" parent="1">
                    <mxGeometry x="325" y="833" width="40" height="30" as="geometry"/>
                </mxCell>
                <mxCell id="38" value="" style="rounded=0;whiteSpace=wrap;html=1;dashed=1;dashPattern=1 1;fillColor=none;" vertex="1" parent="1">
                    <mxGeometry x="110" y="815" width="248" height="61" as="geometry"/>
                </mxCell>
                <mxCell id="46" value="" style="rounded=0;whiteSpace=wrap;html=1;dashed=1;dashPattern=1 1;fillColor=none;" vertex="1" parent="1">
                    <mxGeometry x="840" y="472.25" width="258" height="70.5" as="geometry"/>
                </mxCell>
                <mxCell id="47" value="S8" style="text;html=1;strokeColor=none;fillColor=none;align=right;verticalAlign=middle;whiteSpace=wrap;rounded=0;dashed=1;dashPattern=1 1;fontStyle=1;fontColor=#FF0000;fontSize=15;" vertex="1" parent="1">
                    <mxGeometry x="1054" y="490" width="40" height="30" as="geometry"/>
                </mxCell>
                <mxCell id="STAqftT4j32brJL8to_A-4" value="T" style="text;html=1;strokeColor=none;fillColor=none;align=center;verticalAlign=middle;whiteSpace=wrap;rounded=0;" parent="1" vertex="1">
                    <mxGeometry x="911" y="652" width="60" height="30" as="geometry"/>
                </mxCell>
                <mxCell id="58" style="edgeStyle=none;html=1;exitX=0.5;exitY=1;exitDx=0;exitDy=0;" edge="1" parent="1" source="52" target="38">
                    <mxGeometry relative="1" as="geometry">
                        <Array as="points">
                            <mxPoint x="957" y="1114"/>
                            <mxPoint x="49" y="1110"/>
                            <mxPoint x="53" y="846"/>
                        </Array>
                    </mxGeometry>
                </mxCell>
                <mxCell id="52" value="decrement right elements counter (REC)" style="whiteSpace=wrap;html=1;fillColor=none;rounded=0;dashed=1;dashPattern=1 1;" vertex="1" parent="1">
                    <mxGeometry x="864.5" y="976" width="185" height="60" as="geometry"/>
                </mxCell>
                <mxCell id="25" value="" style="rounded=0;whiteSpace=wrap;html=1;dashed=1;dashPattern=1 1;fillColor=none;" parent="1" vertex="1">
                    <mxGeometry x="836" y="835" width="267" height="89" as="geometry"/>
                </mxCell>
                <mxCell id="56" value="" style="rounded=0;whiteSpace=wrap;html=1;dashed=1;dashPattern=1 1;fillColor=none;" vertex="1" parent="1">
                    <mxGeometry x="844" y="961.5" width="267" height="89" as="geometry"/>
                </mxCell>
                <mxCell id="57" value="S12" style="text;html=1;strokeColor=none;fillColor=none;align=right;verticalAlign=middle;whiteSpace=wrap;rounded=0;dashed=1;dashPattern=1 1;fontStyle=1;fontColor=#FF0000;fontSize=15;" vertex="1" parent="1">
                    <mxGeometry x="1054" y="991" width="40" height="30" as="geometry"/>
                </mxCell>
                <mxCell id="63" style="edgeStyle=none;html=1;exitX=0.5;exitY=1;exitDx=0;exitDy=0;" edge="1" parent="1" source="61" target="OGDo6H8NNohpMqfSObW9-82">
                    <mxGeometry relative="1" as="geometry"/>
                </mxCell>
                <mxCell id="61" value="Set adress mux to EC" style="whiteSpace=wrap;html=1;rounded=0;" vertex="1" parent="1">
                    <mxGeometry x="1756" y="206" width="133" height="38" as="geometry"/>
                </mxCell>
                <mxCell id="67" value="" style="rounded=0;whiteSpace=wrap;html=1;dashed=1;dashPattern=1 1;fillColor=none;" vertex="1" parent="1">
                    <mxGeometry x="1685" y="198" width="251" height="169" as="geometry"/>
                </mxCell>
                <mxCell id="68" value="S14" style="text;html=1;strokeColor=none;fillColor=none;align=left;verticalAlign=middle;whiteSpace=wrap;rounded=0;dashed=1;dashPattern=1 1;fontStyle=1;fontColor=#FF0000;fontSize=15;" vertex="1" parent="1">
                    <mxGeometry x="1696" y="210" width="40" height="30" as="geometry"/>
                </mxCell>
            </root>
        </mxGraphModel>
    </diagram>
</mxfile>